<?xml version="1.0" encoding="UTF-8"?>
<svg width="216px" height="91px" viewBox="0 0 216 91" version="1.1" xmlns="http://www.w3.org/2000/svg" xmlns:xlink="http://www.w3.org/1999/xlink">
    <!-- Generator: Sketch 41.1 (35376) - http://www.bohemiancoding.com/sketch -->
    <title>Page 1</title>
    <desc>Created with Sketch.</desc>
    <defs/>
    <g id="Page-1" stroke="none" stroke-width="1" fill="none" fill-rule="evenodd">
        <g transform="translate(0.000000, -1.000000)" id="Group-48">
            <g transform="translate(0.000000, 0.945000)">
                <path d="M73.9497,18.7117 L45.3127,1.7127 C41.8947,-0.3163 37.6817,-0.3163 34.2637,1.7127 L5.6267,18.7117 C2.2097,20.7407 0.1037,24.4897 0.1037,28.5477 L0.1037,62.5457 C0.1037,66.6027 2.2097,70.3537 5.6277,72.3827 L34.2647,89.3787 C35.9737,90.3937 37.8797,90.8997 39.7887,90.8997 C41.6967,90.8997 43.6027,90.3937 45.3117,89.3787 L73.9487,72.3827 C77.3667,70.3537 79.4737,66.6027 79.4737,62.5457 L79.4737,28.5477 C79.4737,24.4897 77.3667,20.7407 73.9497,18.7117 Z" id="Fill-2" fill="#FEFEFE"/>
                <path d="M35.2656,87.6382 L6.6286,70.6422 C3.8276,68.9792 2.0876,65.8772 2.0876,62.5452 L2.0876,28.5482 C2.0876,25.2162 3.8276,22.1142 6.6276,20.4522 L35.2656,3.4532 C36.6386,2.6382 38.2026,2.2072 39.7886,2.2072 C41.3736,2.2072 42.9376,2.6382 44.3116,3.4532 L72.9486,20.4522 C75.3086,21.8532 76.9006,24.2792 77.3486,27.0002 C76.3986,24.9732 74.2566,24.4222 71.7606,25.8802 L44.6686,42.6142 C41.2906,44.5892 38.7996,46.8052 38.7976,50.8782 L38.7976,84.2612 C38.7956,86.7002 39.7806,88.2802 41.2936,88.7382 C40.7966,88.8242 40.2956,88.8842 39.7886,88.8842 C38.2026,88.8842 36.6386,88.4532 35.2656,87.6382 M73.9496,18.7112 L45.3126,1.7132 C43.6036,0.6982 41.6956,0.1912 39.7886,0.1912 C37.8806,0.1912 35.9726,0.6982 34.2636,1.7132 L5.6266,18.7112 C2.2096,20.7402 0.1036,24.4902 0.1036,28.5482 L0.1036,62.5452 C0.1036,66.6022 2.2096,70.3532 5.6276,72.3822 L34.2646,89.3792 C35.9746,90.3932 37.8806,90.9002 39.7886,90.9002 C41.6966,90.9002 43.6026,90.3932 45.3116,89.3792 L73.9496,72.3822 C77.3676,70.3532 79.4736,66.6022 79.4736,62.5452 L79.4736,28.5482 C79.4736,24.4902 77.3676,20.7402 73.9496,18.7112" id="Fill-4" fill="#3E474A"/>
                <path d="M66.4428,65.8321 L59.3118,70.1001 C59.1228,70.2101 58.9838,70.3341 58.9828,70.5611 L58.9828,72.4271 C58.9828,72.6551 59.1358,72.7501 59.3248,72.6391 L66.5658,68.2381 C66.7548,68.1281 66.7838,67.9171 66.7848,67.6901 L66.7848,66.0441 C66.7848,65.8171 66.6318,65.7221 66.4428,65.8321" id="Fill-6" fill="#47B353"/>
                <path d="M51.258,50.1254 C51.489,50.0084 51.679,50.1524 51.682,50.4544 L51.706,52.9214 C52.739,52.5104 53.636,52.4004 54.449,52.5884 C54.625,52.6354 54.703,52.8754 54.631,53.1604 L54.088,55.3464 C54.046,55.5114 53.953,55.6784 53.841,55.7824 C53.794,55.8284 53.746,55.8644 53.698,55.8884 C53.625,55.9254 53.553,55.9374 53.484,55.9234 C53.113,55.8394 52.231,55.6464 50.843,56.3494 C49.387,57.0864 48.878,58.3514 48.888,59.2904 C48.9,60.4114 49.475,60.7514 51.461,60.7854 C54.107,60.8294 55.25,61.9854 55.278,64.6504 C55.305,67.2674 53.908,70.0774 51.771,71.7994 L51.818,74.2414 C51.821,74.5354 51.63,74.8724 51.399,74.9894 L49.953,75.8224 C49.721,75.9394 49.531,75.7954 49.528,75.5014 L49.503,73.0994 C48.264,73.6144 47.009,73.7384 46.207,73.4164 C46.056,73.3574 45.991,73.1344 46.051,72.8804 L46.575,70.6724 C46.617,70.4984 46.709,70.3244 46.834,70.2134 C46.878,70.1704 46.924,70.1374 46.97,70.1144 C47.053,70.0724 47.134,70.0634 47.203,70.0894 C48.067,70.3804 49.172,70.2444 50.235,69.7064 C51.585,69.0234 52.488,67.6464 52.474,66.2784 C52.461,65.0374 51.789,64.5214 50.155,64.5094 C48.075,64.5154 46.136,64.1054 46.104,61.0434 C46.078,58.5224 47.389,55.8994 49.464,54.2404 L49.438,51.7754 C49.435,51.4724 49.62,51.1394 49.858,51.0194 L51.258,50.1254 Z" id="Fill-8" fill="#FEFEFE"/>
                <path d="M98.6338,48.1006 L104.9448,48.1006 C105.8358,48.1286 106.6698,48.2726 107.4248,48.5266 C108.1438,48.7666 108.7758,49.1136 109.3048,49.5566 C109.8218,49.9906 110.2188,50.5086 110.5148,51.1356 C110.8048,51.7546 110.9458,52.4886 110.9308,53.3436 C110.9308,54.1506 110.7718,54.8696 110.4568,55.4816 C110.1318,56.1136 109.7048,56.6316 109.1558,57.0636 C108.5828,57.5126 107.9098,57.8696 107.1568,58.1246 C106.3888,58.3836 105.5638,58.5236 104.7298,58.5366 L98.6338,58.5366 L98.6338,48.1006 Z M109.4748,38.8016 C109.1458,39.3606 108.7278,39.8186 108.1968,40.2006 C107.6458,40.5956 107.0038,40.9046 106.2848,41.1156 C105.5388,41.3366 104.7658,41.4556 104.0148,41.4696 L98.6338,41.4696 L98.6338,32.5696 L103.8548,32.5696 C104.6938,32.5846 105.5228,32.6886 106.3208,32.8806 C107.0548,33.0556 107.7068,33.3306 108.2568,33.6946 C108.7718,34.0356 109.1718,34.4626 109.4808,34.9986 C109.7758,35.5126 109.9258,36.1716 109.9258,36.9566 C109.9258,37.6806 109.7778,38.2836 109.4748,38.8016 L109.4748,38.8016 Z M116.5098,46.8656 C115.7958,46.0036 114.9348,45.2576 113.9508,44.6486 C113.8298,44.5746 113.7078,44.5026 113.5838,44.4316 C114.3688,43.9076 115.0668,43.2906 115.6618,42.5956 C116.2978,41.8526 116.8028,41.0056 117.1658,40.0806 C117.5308,39.1496 117.7258,38.1146 117.7468,36.9946 C117.7668,35.0526 117.3598,33.3436 116.5358,31.9136 C115.7258,30.5076 114.6248,29.3356 113.2648,28.4266 C111.9458,27.5476 110.4268,26.8906 108.7488,26.4726 C107.1238,26.0686 105.4388,25.8546 103.7238,25.8366 L92.2608,25.8366 C91.4608,25.8366 90.8118,26.4536 90.8118,27.2146 L90.8118,63.8656 C90.8118,64.6266 91.4608,65.2436 92.2608,65.2436 L104.6128,65.2436 C106.3908,65.2256 108.1418,64.9576 109.8168,64.4486 C111.5178,63.9306 113.0458,63.1726 114.3588,62.1936 C115.7028,61.1926 116.7888,59.9336 117.5868,58.4526 C118.3978,56.9506 118.7988,55.2096 118.7788,53.2926 C118.7788,52.0526 118.5778,50.8756 118.1828,49.7946 C117.7878,48.7146 117.2248,47.7296 116.5098,46.8656 L116.5098,46.8656 Z" id="Fill-10" fill="#3E474A"/>
                <path d="M139.9957,48.9461 L133.6677,48.9461 L136.8567,39.1191 L139.9957,48.9461 Z M140.3127,26.7971 C140.1217,26.2251 139.5637,25.8371 138.9317,25.8371 L134.8287,25.8371 C134.1997,25.8371 133.6437,26.2221 133.4507,26.7911 L121.0077,63.4431 C120.8657,63.8621 120.9427,64.3201 121.2157,64.6771 C121.4887,65.0331 121.9237,65.2431 122.3867,65.2431 L127.2847,65.2431 C127.9187,65.2431 128.4797,64.8501 128.6677,64.2741 L131.4487,55.7521 L142.1737,55.7521 L144.9057,64.2681 C145.0917,64.8481 145.6547,65.2431 146.2917,65.2431 L151.1627,65.2431 C151.6247,65.2431 152.0587,65.0341 152.3317,64.6791 C152.6047,64.3251 152.6827,63.8681 152.5427,63.4491 L140.3127,26.7971 Z" id="Fill-12" fill="#3E474A"/>
                <path d="M181.9755,48.2819 C181.3205,47.4419 180.5475,46.6829 179.6745,46.0229 C178.8355,45.3869 177.9205,44.8109 176.9555,44.3069 C176.0085,43.8129 175.0075,43.3689 173.9795,42.9849 C172.9915,42.6189 171.9905,42.2829 170.9905,41.9829 C170.1425,41.7359 169.2345,41.4459 168.2915,41.1219 C167.4165,40.8229 166.5945,40.4439 165.8475,39.9949 C165.1715,39.5889 164.6095,39.0899 164.1755,38.5109 C163.7995,38.0089 163.6095,37.3859 163.5975,36.6289 C163.5975,35.8779 163.7445,35.2509 164.0485,34.7089 C164.3665,34.1439 164.7805,33.6809 165.3145,33.2959 C165.8675,32.8959 166.5135,32.5899 167.2335,32.3869 C168.9175,31.9099 170.8065,31.9809 172.1715,32.4879 C172.9105,32.7619 173.5545,33.1499 174.0825,33.6379 C174.6185,34.1339 175.0565,34.7409 175.3855,35.4409 C175.7315,36.1779 175.9695,37.0179 176.0925,37.9359 C176.1835,38.6229 176.7995,39.1389 177.5295,39.1389 L182.5585,39.1389 C182.9485,39.1389 183.3215,38.9909 183.5935,38.7259 C183.8665,38.4619 184.0155,38.1039 184.0075,37.7339 C183.9675,35.8559 183.5325,34.1219 182.7135,32.5819 C181.9035,31.0629 180.8105,29.7489 179.4665,28.6759 C178.1405,27.6189 176.6015,26.7889 174.8925,26.2059 C171.6495,25.1029 168.0455,25.0439 164.6025,26.0629 C162.9465,26.5539 161.4425,27.2849 160.1325,28.2329 C158.7965,29.1989 157.7005,30.4009 156.8745,31.8019 C156.0225,33.2459 155.5905,34.8949 155.5905,36.7049 C155.5905,38.5269 156.0295,40.1489 156.8945,41.5269 C157.7155,42.8339 158.7875,43.9829 160.0805,44.9399 C161.3255,45.8629 162.7205,46.6499 164.2255,47.2799 C165.6705,47.8849 167.1105,48.4089 168.5085,48.8399 C169.4265,49.1209 170.3835,49.4329 171.3795,49.7789 C172.2845,50.0939 173.1245,50.4909 173.8745,50.9589 C174.5625,51.3879 175.1085,51.8989 175.5405,52.5189 C175.9215,53.0669 176.1065,53.7479 176.1065,54.6029 C176.1065,55.3629 175.9485,55.9839 175.6235,56.5009 C175.2685,57.0659 174.8245,57.5199 174.2675,57.8889 C173.6875,58.2709 173.0125,58.5589 172.2565,58.7429 C170.4445,59.1869 168.4735,59.1169 166.9195,58.6399 C166.0865,58.3849 165.3445,58.0039 164.7145,57.5069 C164.0865,57.0119 163.5645,56.3959 163.1615,55.6779 C162.7515,54.9479 162.4755,54.0839 162.3405,53.1129 C162.2455,52.4279 161.6305,51.9159 160.9045,51.9159 L155.9015,51.9159 C155.5095,51.9159 155.1345,52.0659 154.8625,52.3329 C154.5895,52.5999 154.4415,52.9609 154.4525,53.3329 C154.5125,55.2959 155.0115,57.0819 155.9365,58.6409 C156.8395,60.1639 158.0315,61.4709 159.4785,62.5279 C160.8995,63.5679 162.5305,64.3749 164.3245,64.9259 C166.1015,65.4709 167.9435,65.7469 169.7995,65.7469 C171.4595,65.7469 173.1415,65.5219 174.7975,65.0789 C176.4835,64.6279 178.0215,63.9419 179.3675,63.0419 C180.7475,62.1189 181.8885,60.9489 182.7575,59.5619 C183.6575,58.1269 184.1135,56.4399 184.1135,54.5519 C184.1135,53.3149 183.9215,52.1589 183.5435,51.1179 C183.1695,50.0909 182.6425,49.1369 181.9755,48.2819" id="Fill-14" fill="#3E474A"/>
                <path d="M214.0874,25.837 L209.4544,25.837 C208.6544,25.837 208.0054,26.453 208.0054,27.214 L208.0054,41.595 L195.0994,41.595 L195.0994,27.214 C195.0994,26.453 194.4514,25.837 193.6514,25.837 L189.0444,25.837 C188.2444,25.837 187.5954,26.453 187.5954,27.214 L187.5954,63.866 C187.5954,64.627 188.2444,65.243 189.0444,65.243 L193.6514,65.243 C194.4514,65.243 195.0994,64.627 195.0994,63.866 L195.0994,48.302 L208.0054,48.302 L208.0054,63.866 C208.0054,64.627 208.6544,65.243 209.4544,65.243 L214.0874,65.243 C214.8874,65.243 215.5364,64.627 215.5364,63.866 L215.5364,27.214 C215.5364,26.453 214.8874,25.837 214.0874,25.837" id="Fill-16" fill="#3E474A"/>
                <polygon id="Fill-18" fill="#3E474A" points="95.2427 71.5961 93.4897 71.5961 93.4897 76.2861 92.5527 76.2861 92.5527 71.5961 90.8117 71.5961 90.8117 70.8571 95.2427 70.8571"/>
                <polygon id="Fill-20" fill="#3E474A" points="100.6396 76.2861 99.7226 76.2861 99.7226 73.8631 97.7816 73.8631 97.7816 76.2861 96.8676 76.2861 96.8676 70.8571 97.7816 70.8571 97.7816 73.1281 99.7226 73.1281 99.7226 70.8571 100.6396 70.8571"/>
                <polygon id="Fill-22" fill="#3E474A" points="106.0292 73.8517 103.6802 73.8517 103.6802 75.5557 106.4292 75.5557 106.4292 76.2857 102.7352 76.2857 102.7352 70.8577 106.4012 70.8577 106.4012 71.5957 103.6802 71.5957 103.6802 73.1277 106.0292 73.1277"/>
                <path d="M115.1096,73.8256 L115.1096,75.5556 L116.1366,75.5556 C116.2856,75.5536 116.4216,75.5316 116.5446,75.4906 C116.6676,75.4496 116.7726,75.3926 116.8626,75.3206 C116.9506,75.2486 117.0206,75.1606 117.0716,75.0556 C117.1226,74.9516 117.1486,74.8356 117.1486,74.7056 C117.1486,74.5686 117.1266,74.4466 117.0816,74.3386 C117.0366,74.2296 116.9726,74.1386 116.8896,74.0636 C116.8056,73.9896 116.7036,73.9316 116.5836,73.8906 C116.4636,73.8496 116.3286,73.8286 116.1796,73.8256 L115.1096,73.8256 Z M115.1096,73.1426 L116.0116,73.1426 C116.1526,73.1406 116.2836,73.1226 116.4056,73.0886 C116.5266,73.0556 116.6316,73.0056 116.7206,72.9396 C116.8096,72.8746 116.8806,72.7936 116.9326,72.6976 C116.9846,72.6016 117.0106,72.4916 117.0106,72.3686 C117.0106,72.2316 116.9866,72.1146 116.9366,72.0166 C116.8866,71.9206 116.8166,71.8406 116.7266,71.7786 C116.6366,71.7176 116.5306,71.6716 116.4076,71.6426 C116.2846,71.6136 116.1496,71.5986 116.0036,71.5956 L115.1096,71.5956 L115.1096,73.1426 Z M114.1646,76.2866 L114.1646,70.8576 L115.9876,70.8576 C116.2626,70.8606 116.5186,70.8906 116.7576,70.9476 C116.9976,71.0046 117.2066,71.0936 117.3856,71.2126 C117.5646,71.3316 117.7046,71.4836 117.8066,71.6686 C117.9086,71.8536 117.9586,72.0736 117.9556,72.3276 C117.9536,72.5956 117.8746,72.8246 117.7206,73.0146 C117.5666,73.2056 117.3586,73.3526 117.0976,73.4566 C117.2566,73.4986 117.3986,73.5596 117.5226,73.6376 C117.6466,73.7156 117.7506,73.8096 117.8346,73.9186 C117.9176,74.0286 117.9826,74.1496 118.0266,74.2816 C118.0706,74.4156 118.0936,74.5566 118.0936,74.7056 C118.0936,74.9636 118.0436,75.1916 117.9436,75.3876 C117.8446,75.5836 117.7066,75.7476 117.5306,75.8796 C117.3536,76.0116 117.1446,76.1116 116.9036,76.1796 C116.6616,76.2486 116.4006,76.2846 116.1206,76.2866 L114.1646,76.2866 Z" id="Fill-24" fill="#3E474A"/>
                <path d="M122.8355,73.2221 C122.8335,73.0181 122.8135,72.8151 122.7765,72.6141 C122.7405,72.4131 122.6785,72.2331 122.5925,72.0761 C122.5055,71.9171 122.3915,71.7901 122.2495,71.6911 C122.1065,71.5931 121.9285,71.5441 121.7145,71.5441 C121.5025,71.5441 121.3265,71.5931 121.1865,71.6911 C121.0475,71.7901 120.9355,71.9181 120.8535,72.0771 C120.7705,72.2361 120.7135,72.4151 120.6805,72.6161 C120.6485,72.8161 120.6305,73.0181 120.6275,73.2221 L120.6275,73.9221 C120.6305,74.1261 120.6495,74.3281 120.6825,74.5291 C120.7175,74.7291 120.7745,74.9091 120.8575,75.0691 C120.9395,75.2291 121.0515,75.3591 121.1905,75.4591 C121.3305,75.5581 121.5065,75.6081 121.7185,75.6081 C121.9325,75.6081 122.1105,75.5581 122.2535,75.4591 C122.3955,75.3591 122.5095,75.2301 122.5965,75.0711 C122.6825,74.9111 122.7435,74.7321 122.7785,74.5301 C122.8135,74.3291 122.8335,74.1261 122.8355,73.9221 L122.8355,73.2221 Z M123.7805,73.9221 C123.7805,74.2431 123.7375,74.5511 123.6505,74.8451 C123.5645,75.1401 123.4355,75.3991 123.2645,75.6251 C123.0935,75.8491 122.8795,76.0281 122.6215,76.1611 C122.3645,76.2941 122.0635,76.3601 121.7185,76.3601 C121.3755,76.3601 121.0775,76.2931 120.8245,76.1591 C120.5705,76.0251 120.3595,75.8451 120.1905,75.6211 C120.0225,75.3961 119.8955,75.1371 119.8105,74.8431 C119.7255,74.5501 119.6835,74.2431 119.6835,73.9221 L119.6835,73.2291 C119.6835,73.0151 119.7015,72.8071 119.7405,72.6031 C119.7775,72.3991 119.8345,72.2071 119.9085,72.0261 C119.9835,71.8461 120.0765,71.6801 120.1865,71.5271 C120.2975,71.3741 120.4285,71.2431 120.5785,71.1341 C120.7295,71.0241 120.8995,70.9381 121.0885,70.8761 C121.2785,70.8151 121.4865,70.7831 121.7145,70.7831 C122.0595,70.7831 122.3605,70.8501 122.6185,70.9851 C122.8755,71.1191 123.0905,71.2991 123.2635,71.5231 C123.4355,71.7491 123.5645,72.0091 123.6505,72.3051 C123.7375,72.6001 123.7805,72.9081 123.7805,73.2291 L123.7805,73.9221 Z" id="Fill-26" fill="#3E474A"/>
                <path d="M129.3656,70.8575 L129.3736,74.4935 C129.3706,74.7715 129.3236,75.0265 129.2326,75.2555 C129.1406,75.4855 129.0126,75.6825 128.8476,75.8465 C128.6836,76.0105 128.4846,76.1375 128.2496,76.2265 C128.0166,76.3155 127.7546,76.3605 127.4646,76.3605 C127.1816,76.3605 126.9256,76.3155 126.6956,76.2265 C126.4656,76.1375 126.2686,76.0115 126.1036,75.8485 C125.9386,75.6855 125.8106,75.4885 125.7196,75.2585 C125.6276,75.0295 125.5806,74.7735 125.5786,74.4935 L125.5866,70.8575 L126.5116,70.8575 L126.5186,74.4935 C126.5216,74.6595 126.5436,74.8125 126.5856,74.9515 C126.6276,75.0915 126.6876,75.2105 126.7666,75.3105 C126.8446,75.4115 126.9416,75.4905 127.0586,75.5465 C127.1746,75.6025 127.3096,75.6305 127.4646,75.6305 C127.6206,75.6305 127.7596,75.6025 127.8796,75.5465 C127.9996,75.4905 128.1006,75.4115 128.1816,75.3105 C128.2626,75.2105 128.3236,75.0915 128.3666,74.9515 C128.4076,74.8125 128.4296,74.6595 128.4326,74.4935 L128.4406,70.8575 L129.3656,70.8575 Z" id="Fill-28" fill="#3E474A"/>
                <path d="M132.3518,73.4456 L133.2178,73.4456 C133.3748,73.4456 133.5188,73.4246 133.6498,73.3826 C133.7798,73.3396 133.8928,73.2796 133.9888,73.2016 C134.0838,73.1226 134.1578,73.0276 134.2098,72.9136 C134.2618,72.8016 134.2888,72.6706 134.2888,72.5246 C134.2888,72.3726 134.2638,72.2386 134.2138,72.1226 C134.1638,72.0046 134.0928,71.9066 133.9998,71.8266 C133.9078,71.7476 133.7948,71.6876 133.6608,71.6466 C133.5278,71.6056 133.3788,71.5836 133.2138,71.5816 L132.3518,71.5816 L132.3518,73.4456 Z M133.3078,74.1686 L132.3518,74.1686 L132.3518,76.2856 L131.4108,76.2856 L131.4108,70.8576 L133.2138,70.8576 C133.5068,70.8606 133.7768,70.8956 134.0238,70.9646 C134.2708,71.0326 134.4848,71.1346 134.6648,71.2696 C134.8458,71.4056 134.9848,71.5746 135.0838,71.7786 C135.1838,71.9826 135.2328,72.2206 135.2328,72.4946 C135.2328,72.6786 135.2078,72.8456 135.1568,72.9956 C135.1058,73.1466 135.0348,73.2826 134.9428,73.4046 C134.8518,73.5256 134.7418,73.6326 134.6138,73.7246 C134.4858,73.8176 134.3448,73.8956 134.1908,73.9596 L135.3978,76.2416 L135.3978,76.2856 L134.3948,76.2856 L133.3078,74.1686 Z" id="Fill-30" fill="#3E474A"/>
                <polygon id="Fill-32" fill="#3E474A" points="140.8304 76.2861 139.8814 76.2861 138.0234 72.5511 138.0194 76.2861 137.0664 76.2861 137.0664 70.8571 138.0194 70.8571 139.8704 74.5831 139.8784 70.8571 140.8304 70.8571"/>
                <polygon id="Fill-34" fill="#3E474A" points="146.2239 73.8517 143.8749 73.8517 143.8749 75.5557 146.6239 75.5557 146.6239 76.2857 142.9299 76.2857 142.9299 70.8577 146.5959 70.8577 146.5959 71.5957 143.8749 71.5957 143.8749 73.1277 146.2239 73.1277"/>
                <polygon id="Fill-36" fill="#3E474A" points="149.014 74.265 152.154 74.265 152.154 73.546 149.014 73.546"/>
                <path d="M155.5864,74.2615 L156.8954,74.2615 L156.2494,72.1335 L155.5864,74.2615 Z M157.1314,75.0265 L155.3474,75.0265 L154.9554,76.2865 L153.9824,76.2865 L155.8374,70.8575 L156.6644,70.8575 L158.4844,76.2865 L157.5154,76.2865 L157.1314,75.0265 Z" id="Fill-38" fill="#3E474A"/>
                <path d="M163.9357,75.6081 C163.8397,75.7171 163.7257,75.8181 163.5947,75.9101 C163.4637,76.0021 163.3177,76.0811 163.1557,76.1481 C162.9937,76.2151 162.8177,76.2671 162.6287,76.3051 C162.4387,76.3421 162.2367,76.3601 162.0227,76.3601 C161.6797,76.3601 161.3767,76.2971 161.1127,76.1701 C160.8487,76.0441 160.6257,75.8711 160.4447,75.6511 C160.2627,75.4301 160.1247,75.1711 160.0287,74.8731 C159.9337,74.5751 159.8847,74.2541 159.8817,73.9111 L159.8817,73.2411 C159.8817,72.8971 159.9287,72.5771 160.0227,72.2791 C160.1167,71.9801 160.2517,71.7211 160.4287,71.4991 C160.6057,71.2771 160.8217,71.1031 161.0777,70.9761 C161.3337,70.8471 161.6267,70.7831 161.9557,70.7831 C162.2507,70.7831 162.5147,70.8221 162.7477,70.8981 C162.9807,70.9761 163.1807,71.0871 163.3477,71.2331 C163.5147,71.3781 163.6477,71.5551 163.7457,71.7641 C163.8437,71.9721 163.9057,72.2061 163.9317,72.4651 L163.0067,72.4651 C162.9837,72.3181 162.9467,72.1861 162.8967,72.0701 C162.8467,71.9531 162.7807,71.8531 162.6967,71.7711 C162.6127,71.6891 162.5117,71.6271 162.3927,71.5831 C162.2737,71.5391 162.1337,71.5181 161.9717,71.5181 C161.7727,71.5181 161.6027,71.5641 161.4597,71.6571 C161.3177,71.7511 161.1997,71.8761 161.1057,72.0341 C161.0117,72.1921 160.9417,72.3751 160.8967,72.5821 C160.8527,72.7901 160.8287,73.0071 160.8267,73.2331 L160.8267,73.9111 C160.8287,74.1371 160.8537,74.3541 160.8987,74.5601 C160.9447,74.7661 161.0167,74.9491 161.1147,75.1061 C161.2127,75.2641 161.3387,75.3901 161.4927,75.4851 C161.6477,75.5791 161.8327,75.6281 162.0497,75.6301 C162.1387,75.6301 162.2307,75.6251 162.3247,75.6141 C162.4187,75.6021 162.5087,75.5841 162.5927,75.5601 C162.6777,75.5341 162.7557,75.5031 162.8267,75.4651 C162.8967,75.4251 162.9547,75.3781 162.9987,75.3201 L163.0067,74.2351 L161.9757,74.2351 L161.9757,73.5391 L163.9277,73.5391 L163.9357,75.6081 Z" id="Fill-39" fill="#3E474A"/>
                <path d="M167.0707,74.2615 L168.3797,74.2615 L167.7337,72.1335 L167.0707,74.2615 Z M168.6157,75.0265 L166.8317,75.0265 L166.4397,76.2865 L165.4667,76.2865 L167.3217,70.8575 L168.1487,70.8575 L169.9687,76.2865 L168.9997,76.2865 L168.6157,75.0265 Z" id="Fill-40" fill="#3E474A"/>
                <polygon id="Fill-41" fill="#3E474A" points="171.715 70.8575 175.111 70.8575 175.111 71.5995 173.876 71.5995 173.876 75.5485 175.111 75.5485 175.111 76.2865 171.715 76.2865 171.715 75.5485 172.923 75.5485 172.923 71.5995 171.715 71.5995"/>
                <polygon id="Fill-42" fill="#3E474A" points="181.0251 76.2861 180.0761 76.2861 178.2181 72.5511 178.2141 76.2861 177.2611 76.2861 177.2611 70.8571 178.2141 70.8571 180.0651 74.5831 180.0731 70.8571 181.0251 70.8571"/>
                <path d="M191.7797,74.8882 C191.7797,74.7592 191.7517,74.6452 191.6957,74.5472 C191.6387,74.4482 191.5597,74.3632 191.4557,74.2872 C191.3527,74.2132 191.2307,74.1482 191.0877,74.0922 C190.9457,74.0362 190.7907,73.9852 190.6227,73.9372 C190.3987,73.8752 190.1767,73.7982 189.9587,73.7062 C189.7397,73.6142 189.5457,73.5012 189.3747,73.3692 C189.2027,73.2362 189.0647,73.0802 188.9587,72.9022 C188.8527,72.7252 188.7997,72.5202 188.7997,72.2862 C188.7997,72.0522 188.8527,71.8432 188.9587,71.6572 C189.0647,71.4722 189.2067,71.3162 189.3837,71.1862 C189.5617,71.0572 189.7687,70.9572 190.0037,70.8872 C190.2387,70.8182 190.4847,70.7832 190.7407,70.7832 C191.0157,70.7832 191.2717,70.8242 191.5117,70.9042 C191.7507,70.9852 191.9597,71.0992 192.1387,71.2442 C192.3177,71.3892 192.4597,71.5632 192.5637,71.7652 C192.6687,71.9682 192.7217,72.1932 192.7247,72.4392 L191.7837,72.4392 C191.7707,72.3022 191.7397,72.1772 191.6917,72.0642 C191.6427,71.9512 191.5747,71.8532 191.4877,71.7712 C191.3997,71.6892 191.2937,71.6262 191.1677,71.5812 C191.0427,71.5362 190.8977,71.5142 190.7327,71.5142 C190.5917,71.5142 190.4607,71.5322 190.3407,71.5662 C190.2207,71.6002 190.1167,71.6522 190.0287,71.7192 C189.9417,71.7862 189.8727,71.8672 189.8237,71.9612 C189.7737,72.0562 189.7487,72.1632 189.7487,72.2822 C189.7487,72.4092 189.7827,72.5192 189.8507,72.6122 C189.9187,72.7052 190.0077,72.7872 190.1167,72.8562 C190.2267,72.9262 190.3537,72.9862 190.4957,73.0372 C190.6387,73.0882 190.7867,73.1342 190.9407,73.1762 C191.1787,73.2442 191.4057,73.3262 191.6227,73.4252 C191.8397,73.5232 192.0307,73.6412 192.1957,73.7792 C192.3597,73.9172 192.4907,74.0772 192.5877,74.2582 C192.6837,74.4392 192.7327,74.6472 192.7327,74.8812 C192.7327,75.1222 192.6787,75.3342 192.5717,75.5182 C192.4647,75.7022 192.3207,75.8572 192.1407,75.9802 C191.9597,76.1042 191.7507,76.1982 191.5137,76.2622 C191.2757,76.3252 191.0267,76.3572 190.7677,76.3572 C190.5927,76.3572 190.4197,76.3412 190.2467,76.3082 C190.0737,76.2772 189.9087,76.2282 189.7507,76.1632 C189.5927,76.0992 189.4457,76.0192 189.3097,75.9232 C189.1737,75.8272 189.0557,75.7162 188.9547,75.5912 C188.8547,75.4652 188.7747,75.3252 188.7177,75.1692 C188.6597,75.0142 188.6297,74.8432 188.6277,74.6572 L189.5717,74.6572 C189.5857,74.8212 189.6227,74.9632 189.6857,75.0852 C189.7487,75.2072 189.8317,75.3092 189.9367,75.3892 C190.0417,75.4702 190.1637,75.5322 190.3037,75.5732 C190.4437,75.6132 190.5977,75.6342 190.7677,75.6342 C190.9097,75.6342 191.0417,75.6172 191.1637,75.5862 C191.2867,75.5532 191.3947,75.5052 191.4857,75.4422 C191.5767,75.3782 191.6487,75.3002 191.7017,75.2062 C191.7537,75.1132 191.7797,75.0072 191.7797,74.8882" id="Fill-43" fill="#3E474A"/>
                <polygon id="Fill-44" fill="#3E474A" points="198.255 76.2861 197.338 76.2861 197.338 73.8631 195.397 73.8631 195.397 76.2861 194.483 76.2861 194.483 70.8571 195.397 70.8571 195.397 73.1281 197.338 73.1281 197.338 70.8571 198.255 70.8571"/>
                <polygon id="Fill-45" fill="#3E474A" points="203.6446 73.8517 201.2956 73.8517 201.2956 75.5557 204.0446 75.5557 204.0446 76.2857 200.3506 76.2857 200.3506 70.8577 204.0166 70.8577 204.0166 71.5957 201.2956 71.5957 201.2956 73.1277 203.6446 73.1277"/>
                <polygon id="Fill-46" fill="#3E474A" points="207.0734 75.556 209.7944 75.556 209.7944 76.286 206.1324 76.286 206.1324 70.858 207.0734 70.858"/>
                <polygon id="Fill-47" fill="#3E474A" points="212.8156 75.556 215.5366 75.556 215.5366 76.286 211.8746 76.286 211.8746 70.858 212.8156 70.858"/>
            </g>
        </g>
    </g>
</svg>