<svg xmlns="http://www.w3.org/2000/svg" viewBox="0 0 410 500"><path d="M370.92 404.14h3.8l4.82 12.84 4.84-12.84h3.8v18.87h-2.49v-16.57l-4.86 12.94h-2.57l-4.87-12.94v16.57h-2.47zm-18.71 0h15.97v2.15h-6.7v16.72h-2.57v-16.72h-6.7zM88.24 405.8h9.535l30.145 41.63V405.8h12.87v69.26h-9.54l-30.15-41.62v41.62H88.24V405.8m211.15 0h40.81v13.5h-25.69v14.37h19.75v12.02h-19.75v15.87h26.56v13.5h-41.68V405.8m-79.97 0h19.24l13.36 43.24 13.43-43.24h16.26l7.36 69.26h-14.3l-4.41-43.31-13.51 43.52h-9.59l-13.51-44.99-4.4 44.78H215l7.35-69.26M77.906 469.91c-7.83 6.57-19.472 6.5-24.316 6.5-9.775 0-17.507-3.22-23.218-9.65-5.71-6.47-8.556-15.22-8.556-26.26 0-11.16 2.9-19.95 8.72-26.35 5.81-6.4 13.773-9.6 23.878-9.6 3.9 0 7.633.43 11.192 1.3 3.59.86 6.963 2.14 10.137 3.84l-4.075 12.04c-1.78-.98-3.81-1.95-5.71-2.62-3.22-1.08-6.448-1.62-9.7-1.62-6.018 0-10.674 2-13.947 5.98-3.24 3.96-4.865 9.64-4.865 17.03 0 7.33 1.57 12.99 4.712 16.98 3.14 3.98 7.864 5.98 13.4 5.98 5.61 0 9.093-1.41 10.95-2.91v-11.98h-12.17V436.6h23.57m100.323-32.05c-8.87.24-15.89 3.44-21.05 9.56-5.34 6.37-8.03 15.17-8.03 26.4 0 11.19 2.69 19.98 8.03 26.35 5.37 6.37 12.74 9.55 22.14 9.55 9.42 0 16.81-3.18 22.16-9.55 5.34-6.37 8.01-15.16 8.01-26.35 0-11.23-2.67-20.03-8.01-26.4-5.35-6.38-12.74-9.56-22.16-9.56h-1.09zm.67 12.94h.42c4.63 0 8.23 2 10.76 6.02 2.55 4.03 3.82 9.69 3.82 17 0 7.27-1.27 12.89-3.82 16.91-2.53 4.03-6.13 6.05-10.76 6.05-4.6 0-8.17-2.02-10.71-6.05-2.54-4.02-3.82-9.64-3.82-16.91 0-7.31 1.28-12.97 3.82-17 2.46-3.89 5.89-5.9 10.29-6.02zm33.69-120.15c3.23 24.65-18.08 36.8-38.94 20.92-66.43-50.57 109.97-75.8 98.35-144.88-9.66-57.35-185.61-39.7-205.647 50.04C52.79 284.11 122.18 368.31 194.58 368.31c35.62 0 76.71-32.16 84.4-72.91 5.87-31.07-69.08-18.62-66.39 1.94zM117.63 130.4c18.18-3.71 19.18-78.308-13.25-64.926-32.436 13.385-4.922 68.636 13.25 64.926zm-43.045 34.43c15.277-6.73 1.968-72.504-24.01-54.57-25.966 17.95 8.733 61.29 24.01 54.57zm98.435-51.76c21.48 1.32 45.05-81.968 4.68-76.73-40.36 5.238-26.17 75.42-4.68 76.73zM292.1 23.59c-71.71 0-85.17 102.14-44.82 102.14 40.33 0 116.53-102.14 44.82-102.14z"/></svg>